<svg xmlns="http://www.w3.org/2000/svg" viewBox="0 0 512 512">
  <defs>
    <linearGradient id="bg" x1="0" y1="0" x2="1" y2="1">
      <stop offset="0" stop-color="#245f50"/>
      <stop offset="1" stop-color="#153f35"/>
    </linearGradient>
  </defs>
  <rect width="512" height="512" rx="112" fill="url(#bg)"/>
  <rect x="108" y="118" width="296" height="278" rx="42" fill="#f7fbf8"/>
  <rect x="108" y="118" width="296" height="74" rx="42" fill="#d8a641"/>
  <rect x="108" y="160" width="296" height="32" fill="#d8a641"/>
  <g fill="#2f6f5d" opacity=".22">
    <rect x="144" y="224" width="66" height="48" rx="10"/>
    <rect x="223" y="224" width="66" height="48" rx="10"/>
    <rect x="302" y="224" width="66" height="48" rx="10"/>
    <rect x="144" y="287" width="66" height="48" rx="10"/>
    <rect x="223" y="287" width="66" height="48" rx="10"/>
    <rect x="302" y="287" width="66" height="48" rx="10"/>
  </g>
  <circle cx="326" cy="311" r="84" fill="#1c5143" stroke="#f7fbf8" stroke-width="14"/>
  <path d="M326 264v50l34 25" fill="none" stroke="#e1b24f" stroke-width="16" stroke-linecap="round" stroke-linejoin="round"/>
  <circle cx="326" cy="311" r="9" fill="#e1b24f"/>
</svg>
